<svg width="217" height="217" viewBox="0 0 217 217" fill="none" xmlns="http://www.w3.org/2000/svg">
<path d="M108.341 209.483C166.055 209.483 177.618 182.197 177.618 156.052C177.618 95.1488 152.324 47.2758 152.324 47.2758C152.324 47.2758 149.063 8 113.383 8H103.299C67.6188 8 64.3583 47.2758 64.3583 47.2758C64.3583 47.2758 39.0645 95.1488 39.0645 156.052C39.0645 182.197 50.6273 209.483 108.341 209.483Z" fill="#333333" stroke="black" stroke-width="1.55" stroke-linecap="round" stroke-linejoin="round"/>
<path d="M108.34 69.104C75.0462 69.104 72.1387 52.5138 72.1387 52.5138C72.1387 52.5138 67.6514 26.0669 83.3487 21.1302C99.046 16.1934 107.13 41.297 100.39 44.437H116.273C109.55 41.297 117.617 16.1934 133.314 21.1302C149.012 26.0669 144.524 52.5138 144.524 52.5138C144.524 52.5138 141.634 69.104 108.323 69.104H108.34Z" fill="white" stroke="black" stroke-width="1.55" stroke-linecap="round" stroke-linejoin="round"/>
<path d="M129.682 41.7347C129.682 42.3559 127.85 41.7347 125.598 41.7347C123.346 41.7347 121.514 42.3559 121.514 41.7347C121.514 40.7439 123.346 39.4678 125.598 39.4678C127.85 39.4678 129.682 40.7439 129.682 41.7347Z" fill="black"/>
<path d="M108.341 50.7334C114.485 50.7334 119.467 48.4931 119.467 45.7295C119.467 42.9659 114.485 40.7256 108.341 40.7256C102.196 40.7256 97.2148 42.9659 97.2148 45.7295C97.2148 48.4931 102.196 50.7334 108.341 50.7334Z" fill="#E3F43B" stroke="black" stroke-width="1.55" stroke-linecap="round" stroke-linejoin="round"/>
<path d="M114.173 44.8232C114.173 46.5192 111.568 47.8793 108.358 47.8793C105.148 47.8793 102.543 46.5024 102.543 44.8232H114.19H114.173Z" fill="#FF5543" stroke="black" stroke-width="1.55" stroke-linecap="round" stroke-linejoin="round"/>
<path d="M95.1641 41.7347C95.1641 42.3559 93.3321 41.7347 91.0801 41.7347C88.828 41.7347 86.9961 42.3559 86.9961 41.7347C86.9961 40.7439 88.828 39.4678 91.0801 39.4678C93.3321 39.4678 95.1641 40.7439 95.1641 41.7347Z" fill="black"/>
<path d="M130.707 48.2805C133.529 48.2805 135.816 47.1377 135.816 45.7281C135.816 44.3185 133.529 43.1758 130.707 43.1758C127.885 43.1758 125.598 44.3185 125.598 45.7281C125.598 47.1377 127.885 48.2805 130.707 48.2805Z" fill="#E3F43B"/>
<path d="M85.9686 48.2805C88.7903 48.2805 91.0777 47.1377 91.0777 45.7281C91.0777 44.3185 88.7903 43.1758 85.9686 43.1758C83.1468 43.1758 80.8594 44.3185 80.8594 45.7281C80.8594 47.1377 83.1468 48.2805 85.9686 48.2805Z" fill="#E3F43B"/>
<path d="M160.995 209.483C163.684 209.483 165.852 207.301 165.852 204.631C165.852 200.013 162.104 196.285 157.499 196.285C148.138 196.285 129.718 200.601 124.643 206.897C123.802 207.939 124.508 209.5 125.853 209.5H160.995V209.483Z" fill="#E3F43B" stroke="black" stroke-width="1.55" stroke-linecap="round" stroke-linejoin="round"/>
<path d="M159.012 201.354C159.012 201.354 163.482 206.207 157.734 209.482Z" fill="#E3F43B"/>
<path d="M159.012 201.354C159.012 201.354 163.482 206.207 157.734 209.482" stroke="black" stroke-width="1.55" stroke-linecap="round" stroke-linejoin="round"/>
<path d="M55.7047 209.483C53.0157 209.483 50.8477 207.301 50.8477 204.631C50.8477 200.013 54.5955 196.285 59.2005 196.285C68.5617 196.285 86.9817 200.601 92.0573 206.897C92.8976 207.939 92.1917 209.5 90.8472 209.5H55.7047V209.483Z" fill="#E3F43B" stroke="black" stroke-width="1.55" stroke-linecap="round" stroke-linejoin="round"/>
<path d="M57.6857 201.354C57.6857 201.354 53.2151 206.207 58.963 209.482Z" fill="#E3F43B"/>
<path d="M57.6857 201.354C57.6857 201.354 53.2151 206.207 58.963 209.482" stroke="black" stroke-width="1.55" stroke-linecap="round" stroke-linejoin="round"/>
<path d="M111.112 92.3113H105.549V76.5607C105.549 75.0326 106.793 73.79 108.322 73.79C109.851 73.79 111.095 75.0326 111.095 76.5607V92.3113H111.112Z" fill="#00C728" stroke="black" stroke-width="1.55" stroke-linecap="round" stroke-linejoin="round"/>
<path d="M66.9629 95.9545C56.5092 118.925 73.5511 154.641 97.1978 155.296C100.526 155.38 108.307 152.878 108.307 152.878C108.307 152.878 116.122 155.397 119.45 155.296C143.096 154.641 160.138 118.925 149.685 95.9545C137.752 69.7426 108.307 86.4168 108.307 86.4168C108.307 86.4168 78.8955 69.7426 66.9629 95.9545Z" fill="url(#paint0_linear_3975_13925)" stroke="black" stroke-width="1.55" stroke-linecap="round" stroke-linejoin="round"/>
<path d="M65.9721 46.0488C55.8881 55.8216 26.2918 87.6083 35.8883 122.736C41.4849 143.206 65.6527 151.585 77.7198 147.37C87.4172 143.995 56.0562 129.856 62.8796 97.7504" fill="#333333"/>
<path d="M65.9721 46.0488C55.8881 55.8216 26.2918 87.6083 35.8883 122.736C41.4849 143.206 65.6527 151.585 77.7198 147.37C87.4172 143.995 56.0562 129.856 62.8796 97.7504" stroke="black" stroke-width="1.55" stroke-linecap="round" stroke-linejoin="round"/>
<path d="M150.828 46.0488C160.912 55.8216 190.509 87.6083 180.912 122.736C175.316 143.206 151.148 151.585 139.081 147.37C129.383 143.995 160.744 129.856 153.921 97.7504" fill="#333333"/>
<path d="M150.828 46.0488C160.912 55.8216 190.509 87.6083 180.912 122.736C175.316 143.206 151.148 151.585 139.081 147.37C129.383 143.995 160.744 129.856 153.921 97.7504" stroke="black" stroke-width="1.55" stroke-linecap="round" stroke-linejoin="round"/>
<path d="M134.409 89.1719C134.409 91.9257 137.636 95.1497 140.392 95.1497C137.636 95.1497 134.409 98.3737 134.409 101.128C134.409 98.3737 131.182 95.1497 128.426 95.1497C131.182 95.1497 134.409 91.9257 134.409 89.1719Z" fill="#E3F43B"/>
<path d="M134.409 89.1719C134.409 91.9257 137.636 95.1497 140.392 95.1497C137.636 95.1497 134.409 98.3737 134.409 101.128C134.409 98.3737 131.182 95.1497 128.426 95.1497C131.182 95.1497 134.409 91.9257 134.409 89.1719Z" stroke="black" stroke-width="1.55" stroke-linecap="round" stroke-linejoin="round"/>
<defs>
<linearGradient id="paint0_linear_3975_13925" x1="108.324" y1="155.313" x2="108.324" y2="81.1946" gradientUnits="userSpaceOnUse">
<stop stop-color="#FFDF40"/>
<stop offset="0.15" stop-color="#FFDA3F"/>
<stop offset="0.31" stop-color="#FFCE3F"/>
<stop offset="0.47" stop-color="#FFB93F"/>
<stop offset="0.63" stop-color="#FF9C3E"/>
<stop offset="0.79" stop-color="#FF773D"/>
<stop offset="0.95" stop-color="#FF4A3C"/>
<stop offset="1" stop-color="#FF3C3C"/>
</linearGradient>
</defs>
</svg>
