<svg width="217" height="217" viewBox="0 0 217 217" fill="none" xmlns="http://www.w3.org/2000/svg">
<path d="M108.341 209.483C166.055 209.483 177.617 182.197 177.617 156.052C177.617 95.1488 152.324 47.2758 152.324 47.2758C152.324 47.2758 149.063 8 113.383 8H103.299C67.6187 8 64.3583 47.2758 64.3583 47.2758C64.3583 47.2758 39.0645 95.1488 39.0645 156.052C39.0645 182.197 50.6273 209.483 108.341 209.483Z" fill="#333333" stroke="black" stroke-width="1.68065" stroke-linecap="round" stroke-linejoin="round"/>
<path d="M133.331 21.1484C120.104 17.0008 112.323 34.1284 114.222 41.4999C117.365 42.3899 119.466 43.9347 119.466 45.7314C119.466 48.4853 114.491 50.7353 108.34 50.7353C102.189 50.7353 97.214 48.502 97.214 45.7314C97.214 43.9347 99.3148 42.3899 102.458 41.4999C104.357 34.1116 96.5754 16.9841 83.3487 21.1484C67.6514 26.0851 72.1387 52.532 72.1387 52.532C72.1387 52.532 75.063 69.1222 108.34 69.1222C141.617 69.1222 144.541 52.532 144.541 52.532C144.541 52.532 149.029 26.0851 133.331 21.1484Z" fill="white" stroke="black" stroke-width="1.68065" stroke-linecap="round" stroke-linejoin="round"/>
<path d="M125.602 43.7831C127.291 43.7831 128.661 42.4148 128.661 40.727C128.661 39.0392 127.291 37.6709 125.602 37.6709C123.912 37.6709 122.543 39.0392 122.543 40.727C122.543 42.4148 123.912 43.7831 125.602 43.7831Z" fill="black"/>
<path d="M91.0783 43.7831C92.7677 43.7831 94.1371 42.4148 94.1371 40.727C94.1371 39.0392 92.7677 37.6709 91.0783 37.6709C89.389 37.6709 88.0195 39.0392 88.0195 40.727C88.0195 42.4148 89.389 43.7831 91.0783 43.7831Z" fill="black"/>
<path d="M108.341 50.7334C114.485 50.7334 119.467 48.4931 119.467 45.7295C119.467 42.9659 114.485 40.7256 108.341 40.7256C102.196 40.7256 97.2148 42.9659 97.2148 45.7295C97.2148 48.4931 102.196 50.7334 108.341 50.7334Z" fill="#E3F43B" stroke="black" stroke-width="1.68065" stroke-linecap="round" stroke-linejoin="round"/>
<path d="M102.121 45.7314C103.903 46.2693 106.037 46.5886 108.339 46.5886C110.642 46.5886 112.776 46.2693 114.558 45.7314" stroke="black" stroke-width="1.68065" stroke-linecap="round" stroke-linejoin="round"/>
<path d="M117.047 51.1203C117.047 51.1203 115.3 46.8552 119.249 43.7824C123.199 40.7263 129.619 42.5902 129.619 42.5902" fill="white"/>
<path d="M117.047 51.1203C117.047 51.1203 115.3 46.8552 119.249 43.7824C123.199 40.7263 129.619 42.5902 129.619 42.5902" stroke="black" stroke-width="1.68065" stroke-linecap="round" stroke-linejoin="round"/>
<path d="M99.6337 51.1203C99.6337 51.1203 101.382 46.8552 97.4321 43.7824C93.4826 40.7263 87.0625 42.5902 87.0625 42.5902" stroke="black" stroke-width="1.68065" stroke-linecap="round" stroke-linejoin="round"/>
<path d="M99.6337 51.1203C99.6337 51.1203 101.382 46.8552 97.4321 43.7824C93.4826 40.7263 87.0625 42.5902 87.0625 42.5902" fill="white"/>
<path d="M99.6337 51.1203C99.6337 51.1203 101.382 46.8552 97.4321 43.7824C93.4826 40.7263 87.0625 42.5902 87.0625 42.5902" stroke="black" stroke-width="1.68065" stroke-linecap="round" stroke-linejoin="round"/>
<path d="M113.55 46.0161C113.55 44.6392 113.298 43.1279 112.222 43.1279C110.541 43.1279 111.432 46.5366 110.037 46.5366" fill="#FF5543"/>
<path d="M113.55 46.0161C113.55 44.6392 113.298 43.1279 112.222 43.1279C110.541 43.1279 111.432 46.5366 110.037 46.5366" stroke="black" stroke-width="1.68065" stroke-linecap="round" stroke-linejoin="round"/>
<path d="M130.707 49.9123C133.529 49.9123 135.816 48.7696 135.816 47.36C135.816 45.9503 133.529 44.8076 130.707 44.8076C127.885 44.8076 125.598 45.9503 125.598 47.36C125.598 48.7696 127.885 49.9123 130.707 49.9123Z" fill="#E3F43B"/>
<path d="M85.9686 49.9123C88.7903 49.9123 91.0778 48.7696 91.0778 47.36C91.0778 45.9503 88.7903 44.8076 85.9686 44.8076C83.1468 44.8076 80.8594 45.9503 80.8594 47.36C80.8594 48.7696 83.1468 49.9123 85.9686 49.9123Z" fill="#E3F43B"/>
<path d="M160.995 209.483C163.684 209.483 165.852 207.301 165.852 204.631C165.852 200.013 162.104 196.285 157.499 196.285C148.138 196.285 129.718 200.601 124.643 206.897C123.802 207.939 124.508 209.5 125.853 209.5H160.995V209.483Z" fill="#E3F43B" stroke="black" stroke-width="1.68065" stroke-linecap="round" stroke-linejoin="round"/>
<path d="M159.012 201.354C159.012 201.354 163.482 206.207 157.734 209.482Z" fill="#E3F43B"/>
<path d="M159.012 201.354C159.012 201.354 163.482 206.207 157.734 209.482" stroke="black" stroke-width="1.68065" stroke-linecap="round" stroke-linejoin="round"/>
<path d="M55.7047 209.483C53.0157 209.483 50.8477 207.301 50.8477 204.631C50.8477 200.013 54.5955 196.285 59.2005 196.285C68.5617 196.285 86.9816 200.601 92.0572 206.897C92.8975 207.939 92.1917 209.5 90.8472 209.5H55.7047V209.483Z" fill="#E3F43B" stroke="black" stroke-width="1.68065" stroke-linecap="round" stroke-linejoin="round"/>
<path d="M57.6857 201.354C57.6857 201.354 53.2151 206.207 58.963 209.482Z" fill="#E3F43B"/>
<path d="M57.6857 201.354C57.6857 201.354 53.2151 206.207 58.963 209.482" stroke="black" stroke-width="1.68065" stroke-linecap="round" stroke-linejoin="round"/>
<path d="M111.129 92.3113H105.566V76.5607C105.566 75.0326 106.81 73.79 108.339 73.79C109.869 73.79 111.113 75.0326 111.113 76.5607V92.3113H111.129Z" fill="#00C728" stroke="black" stroke-width="1.68065" stroke-linecap="round" stroke-linejoin="round"/>
<path d="M66.9805 95.9545C56.5268 118.925 73.5686 154.641 97.2154 155.296C100.543 155.38 108.325 152.878 108.325 152.878C108.325 152.878 116.14 155.397 119.467 155.296C143.114 154.641 160.156 118.925 149.702 95.9545C137.77 69.7426 108.325 86.4168 108.325 86.4168C108.325 86.4168 78.9131 69.7426 66.9805 95.9545Z" fill="url(#paint0_linear_3975_13928)" stroke="black" stroke-width="1.68065" stroke-linecap="round" stroke-linejoin="round"/>
<path d="M65.9721 46.0488C55.8881 55.8216 26.2918 87.6083 35.8883 122.736C41.4849 143.206 65.6527 151.585 77.7198 147.37C87.4172 143.995 56.0562 129.856 62.8796 97.7504" fill="#333333"/>
<path d="M65.9721 46.0488C55.8881 55.8216 26.2918 87.6083 35.8883 122.736C41.4849 143.206 65.6527 151.585 77.7198 147.37C87.4172 143.995 56.0562 129.856 62.8796 97.7504" stroke="black" stroke-width="1.68065" stroke-linecap="round" stroke-linejoin="round"/>
<path d="M150.828 46.0488C160.912 55.8216 190.509 87.6083 180.912 122.736C175.316 143.206 151.148 151.585 139.081 147.37C129.383 143.995 160.744 129.856 153.921 97.7504" fill="#333333"/>
<path d="M150.828 46.0488C160.912 55.8216 190.509 87.6083 180.912 122.736C175.316 143.206 151.148 151.585 139.081 147.37C129.383 143.995 160.744 129.856 153.921 97.7504" stroke="black" stroke-width="1.68065" stroke-linecap="round" stroke-linejoin="round"/>
<path d="M134.425 89.1719C134.425 91.9257 137.651 95.1497 140.408 95.1497C137.651 95.1497 134.425 98.3737 134.425 101.128C134.425 98.3737 131.198 95.1497 128.441 95.1497C131.198 95.1497 134.425 91.9257 134.425 89.1719Z" fill="#E3F43B"/>
<path d="M134.425 89.1719C134.425 91.9257 137.651 95.1497 140.408 95.1497C137.651 95.1497 134.425 98.3737 134.425 101.128C134.425 98.3737 131.198 95.1497 128.441 95.1497C131.198 95.1497 134.425 91.9257 134.425 89.1719Z" stroke="black" stroke-width="1.68065" stroke-linecap="round" stroke-linejoin="round"/>
<defs>
<linearGradient id="paint0_linear_3975_13928" x1="108.341" y1="155.313" x2="108.341" y2="81.1946" gradientUnits="userSpaceOnUse">
<stop stop-color="#FFBE00"/>
<stop offset="0.11" stop-color="#FFA30C"/>
<stop offset="0.29" stop-color="#FF7E1D"/>
<stop offset="0.47" stop-color="#FF612A"/>
<stop offset="0.65" stop-color="#FF4C34"/>
<stop offset="0.83" stop-color="#FF403A"/>
<stop offset="1" stop-color="#FF3C3C"/>
</linearGradient>
</defs>
</svg>
