<svg width="217" height="217" viewBox="0 0 217 217" fill="none" xmlns="http://www.w3.org/2000/svg">
<path d="M108.341 209.483C166.055 209.483 177.617 182.197 177.617 156.052C177.617 95.1488 152.324 47.2758 152.324 47.2758C152.324 47.2758 149.063 8 113.383 8H103.299C67.6188 8 64.3583 47.2758 64.3583 47.2758C64.3583 47.2758 39.0645 95.1488 39.0645 156.052C39.0645 182.197 50.6273 209.483 108.341 209.483Z" fill="#333333" stroke="black" stroke-width="1.68065" stroke-linecap="round" stroke-linejoin="round"/>
<path d="M133.331 21.1475C120.105 17 112.323 34.1275 114.222 41.5158C117.365 42.4058 119.466 43.9506 119.466 45.7473C119.466 48.518 114.491 50.7513 108.34 50.7513C102.189 50.7513 97.214 48.518 97.214 45.7473C97.214 43.9506 99.3149 42.4058 102.458 41.5158C104.357 34.1275 96.5754 17 83.3486 21.1475C67.6513 26.0843 72.1387 52.5312 72.1387 52.5312C72.1387 52.5312 75.063 69.1214 108.34 69.1214C141.617 69.1214 144.541 52.5312 144.541 52.5312C144.541 52.5312 149.029 26.0843 133.331 21.1475Z" fill="white" stroke="black" stroke-width="1.68065" stroke-linecap="round" stroke-linejoin="round"/>
<path d="M129.616 40.5762C129.7 41.1975 127.801 40.8281 125.566 41.1471C123.331 41.4662 121.616 42.3393 121.516 41.718C121.381 40.7273 123.011 39.2161 125.247 38.897C127.482 38.578 129.465 39.5855 129.616 40.5762Z" fill="black"/>
<path d="M108.341 50.7334C114.485 50.7334 119.467 48.4931 119.467 45.7295C119.467 42.9659 114.485 40.7256 108.341 40.7256C102.196 40.7256 97.2148 42.9659 97.2148 45.7295C97.2148 48.4931 102.196 50.7334 108.341 50.7334Z" fill="#E3F43B" stroke="black" stroke-width="1.68065" stroke-linecap="round" stroke-linejoin="round"/>
<path d="M114.173 44.8232C114.173 46.5192 111.568 47.8793 108.358 47.8793C105.148 47.8793 102.543 46.5024 102.543 44.8232H114.19H114.173Z" fill="#FF5543" stroke="black" stroke-width="1.68065" stroke-linecap="round" stroke-linejoin="round"/>
<path d="M130.707 48.2805C133.529 48.2805 135.816 47.1377 135.816 45.7281C135.816 44.3185 133.529 43.1758 130.707 43.1758C127.885 43.1758 125.598 44.3185 125.598 45.7281C125.598 47.1377 127.885 48.2805 130.707 48.2805Z" fill="#E3F43B"/>
<path d="M85.9685 48.2805C88.7903 48.2805 91.0777 47.1377 91.0777 45.7281C91.0777 44.3185 88.7903 43.1758 85.9685 43.1758C83.1468 43.1758 80.8594 44.3185 80.8594 45.7281C80.8594 47.1377 83.1468 48.2805 85.9685 48.2805Z" fill="#E3F43B"/>
<path d="M91.0783 43.7831C92.7677 43.7831 94.1371 42.4148 94.1371 40.727C94.1371 39.0392 92.7677 37.6709 91.0783 37.6709C89.389 37.6709 88.0195 39.0392 88.0195 40.727C88.0195 42.4148 89.389 43.7831 91.0783 43.7831Z" fill="black"/>
<path d="M160.995 209.483C163.684 209.483 165.852 207.301 165.852 204.631C165.852 200.013 162.104 196.285 157.499 196.285C148.138 196.285 129.718 200.601 124.643 206.897C123.802 207.939 124.508 209.5 125.853 209.5H160.995V209.483Z" fill="#E3F43B" stroke="black" stroke-width="1.68065" stroke-linecap="round" stroke-linejoin="round"/>
<path d="M159.012 201.354C159.012 201.354 163.482 206.207 157.734 209.482Z" fill="#E3F43B"/>
<path d="M159.012 201.354C159.012 201.354 163.482 206.207 157.734 209.482" stroke="black" stroke-width="1.68065" stroke-linecap="round" stroke-linejoin="round"/>
<path d="M55.7047 209.483C53.0157 209.483 50.8477 207.301 50.8477 204.631C50.8477 200.013 54.5955 196.285 59.2005 196.285C68.5617 196.285 86.9817 200.601 92.0573 206.897C92.8976 207.939 92.1917 209.5 90.8472 209.5H55.7047V209.483Z" fill="#E3F43B" stroke="black" stroke-width="1.68065" stroke-linecap="round" stroke-linejoin="round"/>
<path d="M57.6857 201.354C57.6857 201.354 53.2151 206.207 58.963 209.482Z" fill="#E3F43B"/>
<path d="M57.6857 201.354C57.6857 201.354 53.2151 206.207 58.963 209.482" stroke="black" stroke-width="1.68065" stroke-linecap="round" stroke-linejoin="round"/>
<path d="M111.096 92.3113H105.533V76.5607C105.533 75.0326 106.777 73.79 108.306 73.79C109.836 73.79 111.079 75.0326 111.079 76.5607V92.3113H111.096Z" fill="#00C728" stroke="black" stroke-width="1.68065" stroke-linecap="round" stroke-linejoin="round"/>
<path d="M66.9434 95.9545C56.4897 118.925 73.5315 154.641 97.1783 155.296C100.506 155.38 108.287 152.878 108.287 152.878C108.287 152.878 116.102 155.397 119.43 155.296C143.077 154.641 160.119 118.925 149.665 95.9545C137.732 69.7426 108.287 86.4168 108.287 86.4168C108.287 86.4168 78.876 69.7426 66.9434 95.9545Z" fill="url(#paint0_linear_3975_13927)" stroke="black" stroke-width="1.68065" stroke-linecap="round" stroke-linejoin="round"/>
<path d="M65.972 46.0488C55.8881 55.8216 26.2918 87.6083 35.8883 122.736C41.4849 143.206 65.6527 151.585 77.7198 147.37C87.4172 143.995 56.0562 129.856 62.8796 97.7504" fill="#333333"/>
<path d="M65.972 46.0488C55.8881 55.8216 26.2918 87.6083 35.8883 122.736C41.4849 143.206 65.6527 151.585 77.7198 147.37C87.4172 143.995 56.0562 129.856 62.8796 97.7504" stroke="black" stroke-width="1.68065" stroke-linecap="round" stroke-linejoin="round"/>
<path d="M150.829 46.0488C160.912 55.8216 190.509 87.6083 180.912 122.736C175.316 143.206 151.148 151.585 139.081 147.37C129.383 143.995 160.744 129.856 153.921 97.7504" fill="#333333"/>
<path d="M150.829 46.0488C160.912 55.8216 190.509 87.6083 180.912 122.736C175.316 143.206 151.148 151.585 139.081 147.37C129.383 143.995 160.744 129.856 153.921 97.7504" stroke="black" stroke-width="1.68065" stroke-linecap="round" stroke-linejoin="round"/>
<path d="M134.387 89.1719C134.387 91.9257 137.614 95.1497 140.371 95.1497C137.614 95.1497 134.387 98.3737 134.387 101.128C134.387 98.3737 131.161 95.1497 128.404 95.1497C131.161 95.1497 134.387 91.9257 134.387 89.1719Z" fill="#E3F43B"/>
<path d="M134.387 89.1719C134.387 91.9257 137.614 95.1497 140.371 95.1497C137.614 95.1497 134.387 98.3737 134.387 101.128C134.387 98.3737 131.161 95.1497 128.404 95.1497C131.161 95.1497 134.387 91.9257 134.387 89.1719Z" stroke="black" stroke-width="1.68065" stroke-linecap="round" stroke-linejoin="round"/>
<defs>
<linearGradient id="paint0_linear_3975_13927" x1="108.304" y1="155.313" x2="108.304" y2="81.1946" gradientUnits="userSpaceOnUse">
<stop stop-color="#E2F33B"/>
<stop offset="0.05" stop-color="#CBEE39"/>
<stop offset="0.19" stop-color="#95E434"/>
<stop offset="0.33" stop-color="#67DB30"/>
<stop offset="0.47" stop-color="#42D32D"/>
<stop offset="0.6" stop-color="#25CE2B"/>
<stop offset="0.74" stop-color="#10CA29"/>
<stop offset="0.87" stop-color="#04C728"/>
<stop offset="1" stop-color="#00C728"/>
</linearGradient>
</defs>
</svg>
