<svg width="217" height="217" viewBox="0 0 217 217" fill="none" xmlns="http://www.w3.org/2000/svg">
<path d="M108.34 209.5C166.064 209.5 177.615 182.206 177.615 156.061C177.615 95.1446 152.312 47.2842 152.312 47.2842C152.312 47.2842 149.045 8 113.374 8H103.29C67.6021 8 64.3518 47.2842 64.3518 47.2842C64.3518 47.2842 39.0488 95.1612 39.0488 156.061C39.0488 182.206 50.6168 209.5 108.324 209.5H108.34Z" fill="#333333" stroke="black" stroke-width="1.66529" stroke-linecap="round" stroke-linejoin="round"/>
<path d="M133.344 21.1566C120.109 16.9934 112.325 34.1292 114.225 41.5231C117.375 42.4057 119.475 43.9711 119.475 45.7529C119.475 48.5173 114.491 50.7488 108.341 50.7488C102.19 50.7488 97.2061 48.5173 97.2061 45.7529C97.2061 43.9711 99.3063 42.4057 102.457 41.5231C104.357 34.1459 96.5727 17.01 83.3378 21.1566C67.636 26.0859 72.1198 52.5306 72.1198 52.5306C72.1198 52.5306 75.0369 69.1169 108.324 69.1169C141.611 69.1169 144.528 52.5306 144.528 52.5306C144.528 52.5306 149.012 26.0859 133.31 21.1566H133.344Z" fill="white" stroke="black" stroke-width="1.66529" stroke-linecap="round" stroke-linejoin="round"/>
<path d="M108.342 50.7476C114.491 50.7476 119.476 48.5109 119.476 45.7517C119.476 42.9926 114.491 40.7559 108.342 40.7559C102.192 40.7559 97.207 42.9926 97.207 45.7517C97.207 48.5109 102.192 50.7476 108.342 50.7476Z" fill="#E3F43B" stroke="black" stroke-width="1.66529" stroke-linecap="round" stroke-linejoin="round"/>
<path d="M85.123 43.822C87.5567 42.0401 92.2072 42.1234 95.0242 43.822" stroke="black" stroke-width="1.66529" stroke-linecap="round" stroke-linejoin="round"/>
<path d="M93.124 43.0047C93.7408 42.4385 94.1575 41.6558 94.1575 40.7565C94.1575 39.0579 92.7907 37.6924 91.0905 37.6924C89.3903 37.6924 88.0234 39.0579 88.0234 40.7565C88.0234 41.4559 88.3068 42.0721 88.6902 42.5883C90.157 42.4218 91.7239 42.5883 93.124 43.0213V43.0047Z" fill="black"/>
<path d="M131.561 43.822C129.128 42.0401 124.477 42.1234 121.66 43.822" stroke="black" stroke-width="1.66529" stroke-linecap="round" stroke-linejoin="round"/>
<path d="M123.576 43.0047C124.977 42.5717 126.543 42.4218 128.01 42.5883C128.41 42.0721 128.677 41.4559 128.677 40.7565C128.677 39.0579 127.31 37.6924 125.61 37.6924C123.91 37.6924 122.543 39.0579 122.543 40.7565C122.543 41.6558 122.943 42.4551 123.576 43.0047Z" fill="black"/>
<path d="M113.111 43.9873C113.111 43.9873 113.111 46.0356 115.528 46.8516" stroke="black" stroke-width="1.66529" stroke-linecap="round" stroke-linejoin="round"/>
<path d="M103.226 43.9873C103.226 43.9873 103.226 45.8524 101.025 46.5852" stroke="black" stroke-width="1.66529" stroke-linecap="round" stroke-linejoin="round"/>
<path d="M102.742 45.4873C103.192 45.9369 105.726 46.8528 108.159 46.8528C110.576 46.8528 113.127 45.9203 113.577 45.4873" stroke="black" stroke-width="1.66529" stroke-linecap="round" stroke-linejoin="round"/>
<path d="M161.001 209.501C163.684 209.501 165.868 207.319 165.868 204.638C165.868 200.025 162.118 196.278 157.5 196.278C148.149 196.278 129.714 200.591 124.647 206.886C123.796 207.935 124.513 209.484 125.863 209.484H161.001V209.501Z" fill="#E3F43B" stroke="black" stroke-width="1.66529" stroke-linecap="round" stroke-linejoin="round"/>
<path d="M159.015 201.373C159.015 201.373 163.482 206.219 157.748 209.5Z" fill="#E3F43B"/>
<path d="M159.015 201.373C159.015 201.373 163.482 206.219 157.748 209.5" stroke="black" stroke-width="1.66529" stroke-linecap="round" stroke-linejoin="round"/>
<path d="M55.7032 209.501C53.0195 209.501 50.8359 207.319 50.8359 204.638C50.8359 200.025 54.5864 196.278 59.2036 196.278C68.5547 196.278 86.9901 200.591 92.0574 206.886C92.9075 207.935 92.1907 209.484 90.8406 209.484H55.7032V209.501Z" fill="#E3F43B" stroke="black" stroke-width="1.66529" stroke-linecap="round" stroke-linejoin="round"/>
<path d="M57.6846 201.373C57.6846 201.373 53.2174 206.219 58.9514 209.5Z" fill="#E3F43B"/>
<path d="M57.6846 201.373C57.6846 201.373 53.2174 206.219 58.9514 209.5" stroke="black" stroke-width="1.66529" stroke-linecap="round" stroke-linejoin="round"/>
<path d="M111.077 92.3306H105.51V76.5769C105.51 75.0449 106.76 73.7959 108.293 73.7959C109.827 73.7959 111.077 75.0449 111.077 76.5769V92.3306Z" fill="#00C728" stroke="black" stroke-width="1.66529" stroke-linecap="round" stroke-linejoin="round"/>
<path d="M66.937 95.9777C56.4857 118.959 73.5211 154.662 97.1738 155.312C100.508 155.412 108.275 152.897 108.275 152.897C108.275 152.897 116.093 155.412 119.426 155.312C143.079 154.662 160.114 118.942 149.663 95.9777C137.745 69.766 108.292 86.4522 108.292 86.4522C108.292 86.4522 78.8717 69.766 66.9536 95.9777H66.937Z" fill="url(#paint0_linear_3975_13926)" stroke="black" stroke-width="1.66529" stroke-linecap="round" stroke-linejoin="round"/>
<path d="M65.9713 46.0684C55.8868 55.8436 26.3001 87.6173 35.8845 122.755C41.4685 143.221 65.638 151.598 77.7227 147.401C87.4238 144.021 56.0535 129.899 62.8876 97.7756" fill="#333333"/>
<path d="M65.9713 46.0684C55.8868 55.8436 26.3001 87.6173 35.8845 122.755C41.4685 143.221 65.638 151.598 77.7227 147.401C87.4238 144.021 56.0535 129.899 62.8876 97.7756" stroke="black" stroke-width="1.66529" stroke-linecap="round" stroke-linejoin="round"/>
<path d="M150.829 46.0684C160.914 55.8436 190.5 87.6173 180.916 122.755C175.332 143.221 151.162 151.598 139.078 147.401C129.377 144.021 160.747 129.899 153.913 97.7756" fill="#333333"/>
<path d="M150.829 46.0684C160.914 55.8436 190.5 87.6173 180.916 122.755C175.332 143.221 151.162 151.598 139.078 147.401C129.377 144.021 160.747 129.899 153.913 97.7756" stroke="black" stroke-width="1.66529" stroke-linecap="round" stroke-linejoin="round"/>
<path d="M134.427 89.1826C134.427 91.947 137.644 95.161 140.411 95.161C137.644 95.161 134.427 98.375 134.427 101.139C134.427 98.375 131.21 95.161 128.443 95.161C131.21 95.161 134.427 91.947 134.427 89.1826Z" fill="#E3F43B"/>
<path d="M134.427 89.1826C134.427 91.947 137.644 95.161 140.411 95.161C137.644 95.161 134.427 98.375 134.427 101.139C134.427 98.375 131.21 95.161 128.443 95.161C131.21 95.161 134.427 91.947 134.427 89.1826Z" stroke="black" stroke-width="1.66529" stroke-linecap="round" stroke-linejoin="round"/>
<defs>
<linearGradient id="paint0_linear_3975_13926" x1="108.292" y1="155.329" x2="108.292" y2="81.2232" gradientUnits="userSpaceOnUse">
<stop stop-color="#E2F33B"/>
<stop offset="0.24" stop-color="#DFF23A"/>
<stop offset="0.38" stop-color="#D7F03A"/>
<stop offset="0.49" stop-color="#C8EE38"/>
<stop offset="0.6" stop-color="#B4EA37"/>
<stop offset="0.69" stop-color="#9AE534"/>
<stop offset="0.78" stop-color="#79DE32"/>
<stop offset="0.86" stop-color="#53D72F"/>
<stop offset="0.94" stop-color="#28CE2B"/>
<stop offset="1" stop-color="#00C728"/>
</linearGradient>
</defs>
</svg>
