<svg width="217" height="217" viewBox="0 0 217 217" fill="none" xmlns="http://www.w3.org/2000/svg">
<g clip-path="url(#clip0_3975_13929)">
<path d="M63.2897 59.4121C63.2897 59.4121 28 103.323 28 181.832C28 200.756 99.4173 208.326 108.6 208.326C117.783 208.326 189.2 200.756 189.2 181.832C189.2 103.306 153.91 59.4121 153.91 59.4121" fill="#FF5543"/>
<path d="M63.2897 59.4121C63.2897 59.4121 28 103.323 28 181.832C28 200.756 99.4173 208.326 108.6 208.326C117.783 208.326 189.2 200.756 189.2 181.832C189.2 103.306 153.91 59.4121 153.91 59.4121" stroke="black" stroke-width="1.67568" stroke-linecap="round" stroke-linejoin="round"/>
<path d="M108.603 216.433C166.145 216.433 177.674 189.219 177.674 163.144C177.674 102.403 152.455 54.6575 152.455 54.6575C152.455 54.6575 149.204 15.4863 113.63 15.4863H103.576C68.001 15.4863 64.7503 54.6575 64.7503 54.6575C64.7503 54.6575 39.5312 102.403 39.5312 163.144C39.5312 189.219 51.06 216.433 108.603 216.433Z" fill="#333333" stroke="black" stroke-width="1.67568" stroke-linecap="round" stroke-linejoin="round"/>
<path d="M133.517 28.5988C120.33 24.4623 112.571 41.5442 114.465 48.8961C117.599 49.7837 119.693 51.3244 119.693 53.1164C119.693 55.8629 114.733 58.107 108.6 58.107C102.467 58.107 97.5071 55.8796 97.5071 53.1164C97.5071 51.3244 99.6017 49.7837 102.735 48.8961C104.629 41.5275 96.8704 24.4456 83.6828 28.5988C68.032 33.5224 72.5061 59.8989 72.5061 59.8989C72.5061 59.8989 75.4217 76.4449 108.6 76.4449C141.779 76.4449 144.694 59.8989 144.694 59.8989C144.694 59.8989 149.168 33.5224 133.517 28.5988Z" fill="white" stroke="black" stroke-width="1.67568" stroke-linecap="round" stroke-linejoin="round"/>
<path d="M134.203 56.0139C137.017 56.0139 139.298 54.8743 139.298 53.4684C139.298 52.0625 137.017 50.9229 134.203 50.9229C131.39 50.9229 129.109 52.0625 129.109 53.4684C129.109 54.8743 131.39 56.0139 134.203 56.0139Z" fill="#E3F43B"/>
<path d="M83.0159 56.0139C85.8293 56.0139 88.11 54.8743 88.11 53.4684C88.11 52.0625 85.8293 50.9229 83.0159 50.9229C80.2025 50.9229 77.9219 52.0625 77.9219 53.4684C77.9219 54.8743 80.2025 56.0139 83.0159 56.0139Z" fill="#E3F43B"/>
<path d="M125.812 51.9946C124.388 50.6549 120.467 48.3438 120.467 44.4585C120.467 43.6212 121.036 41.4775 123.265 41.4775C124.958 41.4775 125.561 42.7336 125.795 43.4704C126.03 42.7168 126.633 41.4775 128.326 41.4775C130.571 41.4775 131.124 43.6212 131.124 44.4585C131.124 48.0926 127.203 50.6549 125.779 51.9946H125.812Z" fill="#FF5543" stroke="black" stroke-width="1.67568" stroke-linecap="round" stroke-linejoin="round"/>
<path d="M91.3923 51.9946C89.968 50.6549 86.0469 48.3438 86.0469 44.4585C86.0469 43.6212 86.6167 41.4775 88.8453 41.4775C90.5378 41.4775 91.1409 42.7336 91.3755 43.4704C91.6101 42.7168 92.2134 41.4775 93.9058 41.4775C96.1512 41.4775 96.7043 43.6212 96.7043 44.4585C96.7043 48.0926 92.7832 50.6549 91.3588 51.9946H91.3923Z" fill="#FF5543" stroke="black" stroke-width="1.67568" stroke-linecap="round" stroke-linejoin="round"/>
<path d="M108.601 58.1062C114.727 58.1062 119.694 55.8718 119.694 53.1156C119.694 50.3594 114.727 48.125 108.601 48.125C102.474 48.125 97.5078 50.3594 97.5078 53.1156C97.5078 55.8718 102.474 58.1062 108.601 58.1062Z" fill="#E3F43B" stroke="black" stroke-width="1.67568" stroke-linecap="round" stroke-linejoin="round"/>
<path d="M114.416 52.3115C114.416 53.9695 111.819 55.3092 108.618 55.3092C105.418 55.3092 102.82 53.9695 102.82 52.3115H114.433H114.416Z" fill="#FF5543" stroke="black" stroke-width="1.67568" stroke-linecap="round" stroke-linejoin="round"/>
<path d="M161.101 216.434C163.782 216.434 165.944 214.257 165.944 211.594C165.944 206.988 162.207 203.271 157.616 203.271C148.282 203.271 129.917 207.574 124.856 213.855C124.019 214.893 124.722 216.45 126.063 216.45H161.101V216.434Z" fill="#E3F43B" stroke="black" stroke-width="1.67568" stroke-linecap="round" stroke-linejoin="round"/>
<path d="M159.123 208.328C159.123 208.328 163.58 213.168 157.85 216.434Z" fill="#E3F43B"/>
<path d="M159.123 208.328C159.123 208.328 163.58 213.168 157.85 216.434" stroke="black" stroke-width="1.67568" stroke-linecap="round" stroke-linejoin="round"/>
<path d="M56.1201 216.434C53.439 216.434 51.2773 214.257 51.2773 211.594C51.2773 206.988 55.0142 203.271 59.6055 203.271C68.939 203.271 87.3044 207.574 92.365 213.855C93.2028 214.893 92.499 216.45 91.1584 216.45H56.1201V216.434Z" fill="#E3F43B" stroke="black" stroke-width="1.67568" stroke-linecap="round" stroke-linejoin="round"/>
<path d="M58.0968 208.328C58.0968 208.328 53.6395 213.168 59.3703 216.434Z" fill="#E3F43B"/>
<path d="M58.0968 208.328C58.0968 208.328 53.6395 213.168 59.3703 216.434" stroke="black" stroke-width="1.67568" stroke-linecap="round" stroke-linejoin="round"/>
<path d="M111.382 99.5725H105.836V83.8638C105.836 82.3399 107.076 81.1006 108.601 81.1006C110.126 81.1006 111.366 82.3399 111.366 83.8638V99.5725H111.382Z" fill="#F0B43C" stroke="black" stroke-width="1.67568" stroke-linecap="round" stroke-linejoin="round"/>
<path d="M67.3638 103.207C56.9411 126.117 73.9324 161.738 97.5092 162.391C100.827 162.475 108.585 159.979 108.585 159.979C108.585 159.979 116.377 162.491 119.695 162.391C143.272 161.738 160.263 126.117 149.841 103.207C137.943 77.0651 108.585 93.6948 108.585 93.6948C108.585 93.6948 79.2611 77.0651 67.3638 103.207Z" fill="url(#paint0_linear_3975_13929)" stroke="black" stroke-width="1.67568" stroke-linecap="round" stroke-linejoin="round"/>
<path fill-rule="evenodd" clip-rule="evenodd" d="M108.601 21.9352C106.39 21.9352 95.5145 21.7845 95.2296 18.971L93.9561 12.9756C93.4869 12.8584 93.1015 12.6239 92.7831 12.289C92.096 11.5521 91.9117 10.497 92.3138 9.57596C92.716 8.67162 93.5707 8.11897 94.5761 8.11897C95.5815 8.11897 96.3858 8.65488 96.8047 9.52572C97.1399 10.2123 97.123 10.966 96.8214 11.6191C97.3241 12.0713 97.9441 12.5904 98.2792 12.7411C98.4971 12.356 98.715 11.2507 98.9663 9.99463C98.6479 9.86066 98.3631 9.67644 98.1285 9.40849C97.4415 8.67162 97.2571 7.59982 97.6592 6.69548C98.0614 5.79115 98.9161 5.2385 99.9215 5.2385C100.927 5.2385 101.731 5.7744 102.15 6.64524C102.552 7.46584 102.468 8.40367 101.949 9.12379C103.072 10.6143 103.826 11.3679 104.228 11.3679C104.798 11.3679 105.803 9.24102 106.758 7.1309C106.658 7.04717 106.557 6.96344 106.473 6.86295C105.635 5.95862 105.434 4.71934 105.92 3.5973C106.39 2.50875 107.429 1.83887 108.618 1.83887C109.808 1.83887 110.83 2.50875 111.316 3.5973C111.802 4.71934 111.584 5.95862 110.763 6.86295C110.679 6.96344 110.579 7.04717 110.478 7.1309C111.433 9.24102 112.439 11.3679 113.009 11.3679C113.411 11.3679 114.165 10.6143 115.287 9.12379C114.768 8.40367 114.684 7.46584 115.07 6.64524C115.488 5.7744 116.343 5.2385 117.298 5.2385C118.253 5.2385 119.175 5.79115 119.56 6.69548C119.963 7.61657 119.778 8.67162 119.091 9.40849C118.857 9.65969 118.572 9.86066 118.253 9.99463C118.505 11.2507 118.723 12.356 118.94 12.7411C119.259 12.6072 119.879 12.0713 120.398 11.6191C120.097 10.966 120.097 10.2123 120.398 9.52572C120.817 8.65488 121.672 8.11897 122.627 8.11897C123.582 8.11897 124.504 8.67162 124.889 9.57596C125.291 10.497 125.107 11.5521 124.42 12.289C124.101 12.6407 123.699 12.8751 123.247 12.9923L121.973 18.971C121.688 21.7845 110.797 21.9352 108.601 21.9352Z" fill="url(#paint1_linear_3975_13929)"/>
<path d="M108.602 2.6747C110.462 2.6747 111.401 4.91879 110.127 6.29204C109.909 6.52649 109.658 6.69396 109.39 6.79445C110.965 10.3281 111.853 12.2037 112.993 12.2037C113.831 12.2037 114.836 11.1821 116.378 9.03854C116.244 8.93806 116.126 8.82083 116.009 8.68685C115.171 7.63179 115.942 6.05758 117.299 6.05758C118.791 6.05758 119.444 7.78252 118.489 8.82083C118.171 9.15577 117.752 9.32324 117.349 9.32324C117.333 9.32324 117.316 9.32324 117.299 9.32324C117.852 12.2372 118.087 13.5937 118.858 13.5937C119.394 13.5937 120.181 12.9406 121.522 11.7348C121.522 11.7348 121.421 11.6343 121.371 11.5673C120.533 10.5123 121.304 8.93806 122.661 8.93806C124.153 8.93806 124.806 10.663 123.851 11.7013C123.533 12.0362 123.131 12.2037 122.712 12.2037C122.678 12.2037 122.645 12.2037 122.611 12.2037L121.204 18.8355C121.204 20.0748 115.59 21.0796 108.653 21.0796C101.715 21.0796 96.1018 20.0748 96.1018 18.8355L94.6943 12.2037C94.6943 12.2037 94.6273 12.2037 94.5938 12.2037C94.1749 12.2037 93.7727 12.0362 93.4543 11.7013C92.4824 10.663 93.1527 8.93806 94.644 8.93806C95.9845 8.93806 96.7721 10.5123 95.9343 11.5673C95.884 11.6343 95.8337 11.6846 95.7835 11.7348C97.124 12.9573 97.9116 13.5937 98.4478 13.5937C99.2186 13.5937 99.4532 12.254 100.006 9.32324C99.9894 9.32324 99.9727 9.32324 99.9392 9.32324C99.5203 9.32324 99.1181 9.15577 98.7998 8.82083C97.8279 7.78252 98.4981 6.05758 99.9894 6.05758C101.347 6.05758 102.118 7.63179 101.28 8.68685C101.179 8.82083 101.045 8.93806 100.911 9.03854C102.453 11.1821 103.441 12.2037 104.296 12.2037C105.435 12.2037 106.307 10.3281 107.899 6.79445C107.631 6.69396 107.379 6.50975 107.161 6.29204C105.888 4.91879 106.809 2.6747 108.686 2.6747M108.686 1C107.161 1 105.838 1.87084 105.234 3.26084C104.648 4.61734 104.882 6.19156 105.838 7.3136C105.268 8.56962 104.648 9.85914 104.229 10.395C104.011 10.2108 103.642 9.82564 103.039 9.05528C103.441 8.18444 103.425 7.17963 103.006 6.27529C102.453 5.11975 101.296 4.39963 100.023 4.39963C98.7495 4.39963 97.5262 5.15324 96.99 6.35903C96.7554 6.87818 96.6716 7.43083 96.7218 7.98348C96.1521 7.53131 95.4484 7.28011 94.6776 7.28011C93.337 7.28011 92.164 8.03372 91.6446 9.2395C91.1084 10.462 91.3597 11.8855 92.2646 12.8568C92.5662 13.1918 92.9349 13.443 93.3203 13.6272L94.4765 19.1035C94.7781 21.5485 99.5537 22.771 108.686 22.771C117.819 22.771 122.594 21.5318 122.896 19.1035L124.052 13.6272C124.454 13.4597 124.806 13.1918 125.108 12.8568C126.013 11.8855 126.264 10.462 125.728 9.2395C125.192 8.03372 124.035 7.28011 122.695 7.28011C121.941 7.28011 121.22 7.53131 120.651 7.98348C120.701 7.43083 120.617 6.87818 120.382 6.35903C119.846 5.15324 118.69 4.39963 117.349 4.39963C116.009 4.39963 114.92 5.11975 114.367 6.27529C113.931 7.17963 113.931 8.18444 114.333 9.05528C113.73 9.82564 113.361 10.2108 113.144 10.395C112.725 9.85914 112.105 8.56962 111.535 7.3136C112.49 6.19156 112.741 4.61734 112.138 3.26084C111.535 1.87084 110.211 1 108.686 1ZM119.26 10.4285C119.26 10.4285 119.36 10.3615 119.411 10.3281C119.377 10.6797 119.411 11.0147 119.494 11.3664C119.494 11.3664 119.494 11.3664 119.478 11.3831C119.411 11.0984 119.344 10.7802 119.276 10.4453L119.26 10.4285ZM97.8948 11.3496C97.9786 11.0147 98.0121 10.663 97.9786 10.3113C98.0289 10.3448 98.0792 10.3783 98.1127 10.4118C98.0456 10.7467 97.9786 11.0817 97.9116 11.3496C97.9116 11.3496 97.9116 11.3496 97.8948 11.3329V11.3496Z" fill="black"/>
<path d="M86.4476 139.748C86.4476 141.557 88.559 143.684 90.3855 143.684C88.5757 143.684 86.4476 145.794 86.4476 147.619C86.4476 145.81 84.3363 143.684 82.5098 143.684C84.3195 143.684 86.4476 141.573 86.4476 139.748Z" fill="#E3F43B"/>
<path d="M86.4476 139.748C86.4476 141.557 88.559 143.684 90.3855 143.684C88.5757 143.684 86.4476 145.794 86.4476 147.619C86.4476 145.81 84.3363 143.684 82.5098 143.684C84.3195 143.684 86.4476 141.573 86.4476 139.748Z" stroke="black" stroke-width="1.67568" stroke-linecap="round" stroke-linejoin="round"/>
<path d="M134.606 96.4414C134.606 99.1879 137.823 102.403 140.571 102.403C137.823 102.403 134.606 105.619 134.606 108.365C134.606 105.619 131.389 102.403 128.641 102.403C131.389 102.403 134.606 99.1879 134.606 96.4414Z" fill="#E3F43B"/>
<path d="M134.606 96.4414C134.606 99.1879 137.823 102.403 140.571 102.403C137.823 102.403 134.606 105.619 134.606 108.365C134.606 105.619 131.389 102.403 128.641 102.403C131.389 102.403 134.606 99.1879 134.606 96.4414Z" stroke="black" stroke-width="1.67568" stroke-linecap="round" stroke-linejoin="round"/>
<path d="M63.2237 56.6318C54.4766 67.4504 26.8113 94.8819 36.3794 129.933C41.9594 150.348 66.0556 158.705 78.0869 154.501C87.7556 151.135 56.4875 137.034 63.2908 105.014" fill="#333333"/>
<path d="M63.2237 56.6318C54.4766 67.4504 26.8113 94.8819 36.3794 129.933C41.9594 150.348 66.0556 158.705 78.0869 154.501C87.7556 151.135 56.4875 137.034 63.2908 105.014" stroke="black" stroke-width="1.67568" stroke-linecap="round" stroke-linejoin="round"/>
<path d="M153.006 55.4121C160.463 64.3885 190.81 93.4277 180.839 129.919C175.259 150.334 151.163 158.691 139.132 154.487C129.463 151.121 160.731 137.02 153.928 105" fill="#333333"/>
<path d="M153.006 55.4121C160.463 64.3885 190.81 93.4277 180.839 129.919C175.259 150.334 151.163 158.691 139.132 154.487C129.463 151.121 160.731 137.02 153.928 105" stroke="black" stroke-width="1.67568" stroke-linecap="round" stroke-linejoin="round"/>
<path d="M65.0826 52.1956C65.0826 52.1956 66.4566 65.8778 77.0469 71.3206C67.9312 72.6436 58.4302 62.294 58.4302 62.294C58.4302 62.294 56.5702 59.8489 58.4302 57.4374C60.2902 55.0258 62.6193 51.375 65.0826 52.1788V52.1956Z" fill="#FF5543" stroke="black" stroke-width="1.67568" stroke-linecap="round" stroke-linejoin="round"/>
<path d="M78.5051 76.9629C78.036 76.9629 77.6338 76.695 77.3321 76.4773C77.2316 76.4103 77.0809 76.3098 76.9971 76.2763C77.0474 76.3098 76.8966 76.4103 76.796 76.4773C76.4776 76.695 76.0922 76.9629 75.6063 76.9629C75.5225 76.9629 75.3213 76.9294 75.2376 76.9127C74.584 76.695 74.3662 76.0754 74.2154 75.6232C74.1819 75.5394 74.1484 75.439 74.1149 75.3552C74.0311 75.3552 73.9138 75.3552 73.83 75.3552C73.3441 75.3552 72.7073 75.3217 72.3051 74.7858C71.903 74.2499 72.1041 73.6135 72.2381 73.1614C72.2716 73.0776 72.3051 72.9604 72.3219 72.8767C72.2549 72.8264 72.1711 72.7595 72.104 72.7092C71.7354 72.4245 71.1992 72.0226 71.1992 71.336C71.1992 70.6493 71.7522 70.2307 72.104 69.9627C72.1711 69.9125 72.2549 69.8455 72.3219 69.7952C72.3051 69.7115 72.2716 69.5943 72.2381 69.5105C72.1041 69.0584 71.9197 68.4387 72.3051 67.8861C72.7073 67.3334 73.3609 67.3334 73.83 67.3167C73.9138 67.3167 74.0311 67.3167 74.1149 67.3167C74.1484 67.233 74.1819 67.1325 74.2154 67.0487C74.3662 66.5966 74.6008 65.9769 75.2376 65.7592C75.3213 65.7257 75.5225 65.709 75.6063 65.709C76.0754 65.709 76.4776 65.9769 76.796 66.1946C76.8966 66.2616 77.0473 66.3621 77.1311 66.3956C77.0808 66.3621 77.2316 66.2616 77.3321 66.1946C77.6505 65.9769 78.036 65.709 78.5051 65.709C78.5889 65.709 78.7901 65.7425 78.8738 65.7592C79.5274 65.9602 79.7452 66.5966 79.896 67.0487C79.9295 67.1325 79.963 67.233 79.9965 67.3167C80.0803 67.3167 80.1976 67.3167 80.2814 67.3167C80.7673 67.3167 81.4209 67.3502 81.8063 67.8861C82.2084 68.422 82.0073 69.0584 81.8733 69.5105C81.8398 69.5943 81.8063 69.7115 81.7895 69.7952C81.8565 69.8455 81.9403 69.9125 82.0074 69.9627C82.376 70.2474 82.9122 70.6493 82.9122 71.336C82.9122 72.0226 82.3592 72.4413 82.0074 72.7092C81.9403 72.7595 81.8565 72.8264 81.7895 72.8767C81.8063 72.9604 81.8398 73.0776 81.8733 73.1614C82.0073 73.6135 82.1917 74.2332 81.8063 74.7858C81.4041 75.3385 80.7505 75.3552 80.2814 75.3552C80.1976 75.3552 80.0803 75.3552 79.9965 75.3552C79.963 75.439 79.9295 75.5394 79.896 75.6232C79.7452 76.0754 79.5106 76.695 78.8738 76.9127C78.7901 76.9462 78.5889 76.9629 78.5051 76.9629Z" fill="white"/>
<path d="M75.6065 66.5136C76.0422 66.5136 76.5952 67.2002 77.0476 67.2002C77.5 67.2002 78.053 66.5136 78.4887 66.5136C78.5222 66.5136 78.5725 66.5136 78.606 66.5303C79.0752 66.681 79.0919 67.7026 79.4774 67.9873C79.8628 68.272 80.8514 67.9873 81.1363 68.3557C81.4211 68.7409 80.8347 69.5783 80.9855 70.0472C81.1363 70.4993 82.1082 70.8343 82.1082 71.3199C82.1082 71.8056 81.1363 72.1405 80.9855 72.5927C80.8347 73.0616 81.4211 73.899 81.1363 74.2841C80.8514 74.6693 79.8628 74.3679 79.4774 74.6526C79.0919 74.9373 79.0752 75.9588 78.606 76.1096C78.5725 76.1096 78.5389 76.1263 78.4887 76.1263C78.053 76.1263 77.5 75.4397 77.0476 75.4397C76.5952 75.4397 76.0422 76.1263 75.6065 76.1263C75.573 76.1263 75.5228 76.1263 75.4892 76.1096C75.02 75.9588 75.0033 74.9373 74.6179 74.6526C74.2324 74.3679 73.2438 74.6526 72.9589 74.2841C72.6741 73.899 73.2606 73.0616 73.1098 72.5927C72.959 72.1405 71.9871 71.8056 71.9871 71.3199C71.9871 70.8343 72.959 70.4993 73.1098 70.0472C73.2606 69.5783 72.6741 68.7409 72.9589 68.3557C73.2438 67.9706 74.2324 68.272 74.6179 67.9873C75.0033 67.7026 75.02 66.681 75.4892 66.5303C75.5228 66.5303 75.5563 66.5136 75.6065 66.5136ZM75.6065 64.8389C75.3887 64.8389 75.1709 64.8724 74.9698 64.9394C74.0984 65.224 73.713 65.9442 73.512 66.4633C72.959 66.4968 72.1546 66.6308 71.6184 67.3677C71.0822 68.1045 71.1995 68.9084 71.3336 69.461C70.8979 69.8127 70.3281 70.3989 70.3281 71.3199C70.3281 72.241 70.8979 72.8272 71.3336 73.1788C71.1995 73.7148 71.0655 74.5186 71.6184 75.2722C72.1546 76.0091 72.959 76.1431 73.512 76.1766C73.713 76.6957 74.0984 77.4158 74.9698 77.7005C75.1709 77.7675 75.3887 77.801 75.6065 77.801C76.2098 77.801 76.6957 77.5498 77.0476 77.3153C77.3995 77.5498 77.8854 77.801 78.4887 77.801C78.7065 77.801 78.9243 77.7675 79.1254 77.7005C79.9968 77.4158 80.3822 76.6957 80.5833 76.1766C81.1362 76.1431 81.9406 76.0091 82.4768 75.2722C83.013 74.5354 82.8958 73.7315 82.7617 73.1788C83.1974 72.8272 83.7671 72.241 83.7671 71.3199C83.7671 70.3989 83.1974 69.8127 82.7617 69.461C82.8958 68.9251 83.0298 68.1213 82.4768 67.3677C81.9406 66.6308 81.1362 66.4968 80.5833 66.4633C80.3822 65.9442 79.9968 65.224 79.1254 64.9394C78.9243 64.8724 78.7065 64.8389 78.4887 64.8389C77.8854 64.8389 77.3995 65.0901 77.0476 65.3245C76.6957 65.0901 76.2098 64.8389 75.6065 64.8389Z" fill="black"/>
<path d="M152.121 52.1956C152.121 52.1956 150.747 65.8778 140.156 71.3206C149.272 72.6436 158.773 62.294 158.773 62.294C158.773 62.294 160.633 59.8489 158.773 57.4374C156.913 55.0258 154.584 51.375 152.121 52.1788V52.1956Z" fill="#FF5543" stroke="black" stroke-width="1.67568" stroke-linecap="round" stroke-linejoin="round"/>
<path d="M140.155 77.1996C139.468 77.1996 139.049 76.6469 138.781 76.2952C138.731 76.2282 138.664 76.1445 138.614 76.0775C138.53 76.0943 138.413 76.1278 138.329 76.1613C138.078 76.245 137.776 76.3287 137.474 76.3287C137.173 76.3287 136.921 76.245 136.703 76.0943C136.151 75.6923 136.15 75.0392 136.134 74.5703C136.134 74.4866 136.134 74.3693 136.134 74.2856C136.05 74.2521 135.949 74.2186 135.866 74.1851C135.413 74.0177 134.793 73.7999 134.575 73.1636C134.374 72.5272 134.743 72.008 134.994 71.6061C135.061 71.5056 135.162 71.3549 135.195 71.2711C135.145 71.2711 135.061 71.1539 135.011 71.0534C134.743 70.6683 134.374 70.1324 134.592 69.496C134.81 68.8428 135.43 68.6251 135.882 68.4744C135.966 68.4409 136.067 68.4074 136.15 68.3739C136.15 68.2902 136.15 68.173 136.15 68.0892C136.15 67.6036 136.184 66.9504 136.72 66.5653C136.938 66.4145 137.189 66.3308 137.491 66.3308C137.793 66.3308 138.078 66.4145 138.346 66.4983C138.429 66.515 138.547 66.5653 138.63 66.582C138.681 66.515 138.748 66.4313 138.798 66.3643C139.083 65.9959 139.485 65.46 140.172 65.46C140.859 65.46 141.278 66.0126 141.546 66.3643C141.596 66.4313 141.663 66.515 141.714 66.582C141.798 66.5653 141.915 66.5318 141.999 66.4983C142.25 66.4145 142.552 66.3308 142.853 66.3308C143.155 66.3308 143.406 66.4145 143.624 66.5653C144.177 66.9672 144.194 67.6203 144.194 68.0892C144.194 68.173 144.194 68.2902 144.194 68.3739C144.278 68.4074 144.378 68.4409 144.462 68.4744C144.914 68.6419 145.534 68.8596 145.752 69.496C145.953 70.1324 145.585 70.6515 145.333 71.0534C145.266 71.1539 145.166 71.3046 145.132 71.3884C145.182 71.3884 145.266 71.5056 145.316 71.6061C145.585 71.9913 145.953 72.5272 145.735 73.1636C145.534 73.7999 144.914 74.0177 144.445 74.1851C144.361 74.2186 144.261 74.2521 144.177 74.2856C144.177 74.3693 144.177 74.4866 144.177 74.5703C144.177 75.0392 144.143 75.6923 143.607 76.0943C143.389 76.245 143.138 76.3287 142.836 76.3287C142.535 76.3287 142.25 76.245 141.982 76.1613C141.898 76.1445 141.781 76.0943 141.697 76.0775C141.647 76.1445 141.58 76.2282 141.529 76.2952C141.245 76.6637 140.826 77.1996 140.155 77.1996Z" fill="white"/>
<path d="M140.154 66.2792C140.656 66.2792 140.975 67.2505 141.427 67.4012C141.477 67.418 141.544 67.418 141.611 67.418C141.98 67.418 142.483 67.1668 142.851 67.1668C142.952 67.1668 143.052 67.1835 143.12 67.2505C143.505 67.5352 143.203 68.5233 143.488 68.9085C143.773 69.2936 144.795 69.3104 144.946 69.7793C145.097 70.2315 144.276 70.8511 144.276 71.3368C144.276 71.8224 145.097 72.4421 144.946 72.8942C144.795 73.3631 143.773 73.3799 143.488 73.7651C143.203 74.1503 143.488 75.1383 143.12 75.423C143.036 75.4733 142.952 75.5068 142.851 75.5068C142.483 75.5068 141.98 75.2556 141.611 75.2556C141.544 75.2556 141.494 75.2556 141.427 75.2723C140.975 75.423 140.64 76.3943 140.154 76.3943C139.668 76.3943 139.333 75.423 138.88 75.2723C138.83 75.2556 138.763 75.2556 138.696 75.2556C138.327 75.2556 137.824 75.5068 137.456 75.5068C137.355 75.5068 137.255 75.49 137.188 75.423C136.802 75.1383 137.104 74.1503 136.819 73.7651C136.534 73.3799 135.512 73.3631 135.361 72.8942C135.21 72.4421 136.031 71.8224 136.031 71.3368C136.031 70.8511 135.21 70.2315 135.361 69.7793C135.512 69.3104 136.534 69.2936 136.819 68.9085C137.104 68.5233 136.819 67.5352 137.188 67.2505C137.271 67.2003 137.355 67.1668 137.456 67.1668C137.824 67.1668 138.327 67.418 138.696 67.418C138.763 67.418 138.813 67.418 138.88 67.4012C139.333 67.2505 139.668 66.2792 140.154 66.2792ZM140.154 64.6045C139.232 64.6045 138.645 65.1739 138.294 65.6093C138.059 65.5423 137.774 65.4921 137.472 65.4921C136.886 65.4921 136.467 65.7098 136.216 65.894C135.478 66.4299 135.344 67.2338 135.311 67.7864C134.791 67.9874 134.071 68.3726 133.786 69.2434C133.501 70.1142 133.87 70.8511 134.171 71.32C133.87 71.7889 133.501 72.5091 133.786 73.3966C134.071 74.2675 134.791 74.6527 135.311 74.8536C135.344 75.4063 135.478 76.2101 136.216 76.746C136.568 77.014 137.003 77.148 137.472 77.148C137.774 77.148 138.059 77.0977 138.294 77.0307C138.645 77.4662 139.232 78.0355 140.154 78.0355C141.075 78.0355 141.662 77.4662 142.014 77.0307C142.248 77.0977 142.533 77.148 142.835 77.148C143.421 77.148 143.84 76.9302 144.091 76.746C144.829 76.2101 144.963 75.4063 144.996 74.8536C145.516 74.6527 146.236 74.2675 146.521 73.3966C146.806 72.5258 146.437 71.7889 146.136 71.32C146.437 70.8511 146.806 70.131 146.521 69.2434C146.236 68.3726 145.516 67.9874 144.996 67.7864C144.963 67.2338 144.829 66.4299 144.091 65.894C143.84 65.7098 143.421 65.4921 142.835 65.4921C142.533 65.4921 142.248 65.5423 142.014 65.6093C141.662 65.1739 141.075 64.6045 140.154 64.6045Z" fill="black"/>
</g>
<defs>
<linearGradient id="paint0_linear_3975_13929" x1="124.169" y1="162.089" x2="95.913" y2="84.3729" gradientUnits="userSpaceOnUse">
<stop stop-color="#F0B43C"/>
<stop offset="0.1" stop-color="#F0C742"/>
<stop offset="0.26" stop-color="#F0E24B"/>
<stop offset="0.37" stop-color="#F0EB4E"/>
<stop offset="0.5" stop-color="#F0F050"/>
<stop offset="0.63" stop-color="#F0EB4E"/>
<stop offset="0.76" stop-color="#F0DF4A"/>
<stop offset="0.89" stop-color="#F0CA43"/>
<stop offset="1" stop-color="#F0B43C"/>
</linearGradient>
<linearGradient id="paint1_linear_3975_13929" x1="92.1128" y1="11.887" x2="125.107" y2="11.887" gradientUnits="userSpaceOnUse">
<stop stop-color="#F0B43C"/>
<stop offset="0.1" stop-color="#F0C742"/>
<stop offset="0.26" stop-color="#F0E24B"/>
<stop offset="0.37" stop-color="#F0EB4E"/>
<stop offset="0.5" stop-color="#F0F050"/>
<stop offset="0.63" stop-color="#F0EB4E"/>
<stop offset="0.76" stop-color="#F0DF4A"/>
<stop offset="0.89" stop-color="#F0CA43"/>
<stop offset="1" stop-color="#F0B43C"/>
</linearGradient>
<clipPath id="clip0_3975_13929">
<rect width="217" height="217" fill="white"/>
</clipPath>
</defs>
</svg>
