<?xml version="1.0" standalone="no"?>
<!DOCTYPE svg PUBLIC "-//W3C//DTD SVG 20010904//EN"
 "http://www.w3.org/TR/2001/REC-SVG-20010904/DTD/svg10.dtd">
<svg version="1.0" xmlns="http://www.w3.org/2000/svg"
 width="60.000000pt" height="60.000000pt" viewBox="0 0 60.000000 60.000000"
 preserveAspectRatio="xMidYMid meet">

<g transform="translate(0.000000,60.000000) scale(0.100000,-0.100000)"
fill="#ebd7b4" stroke="#ebd7b4">
<path d="M308 482 c-43 -28 -68 -67 -78 -121 -5 -29 -14 -60 -20 -71 -29 -53
0 -150 55 -186 37 -24 103 -24 121 1 19 26 24 208 8 325 -8 59 -11 65 -34 68
-14 1 -37 -6 -52 -16z m70 -84 c14 -100 5 -273 -14 -289 -24 -20 -80 -1 -113
37 -36 40 -40 87 -16 163 8 25 17 59 21 75 6 34 67 96 93 96 15 0 20 -14 29
-82z"/>
<path d="M277 403 c-11 -10 -8 -43 3 -43 6 0 10 4 10 9 0 5 3 16 6 25 6 16 -7
22 -19 9z"/>
<path d="M233 184 c11 -11 119 -45 125 -40 8 8 -80 46 -107 46 -13 0 -21 -3
-18 -6z"/>
</g>
</svg>
